<svg xmlns="http://www.w3.org/2000/svg" viewBox="0 0 180 180">
  <defs>
    <linearGradient id="bg" x1="0" y1="0" x2="1" y2="1">
      <stop offset="0" stop-color="#ff3030"/>
      <stop offset="1" stop-color="#760000"/>
    </linearGradient>
    <filter id="shadow" x="-30%" y="-30%" width="160%" height="160%">
      <feDropShadow dx="0" dy="8" stdDeviation="8" flood-color="#310000" flood-opacity=".55"/>
    </filter>
  </defs>
  <rect width="180" height="180" rx="42" fill="#080000"/>
  <rect x="18" y="18" width="144" height="144" rx="38" fill="url(#bg)" filter="url(#shadow)"/>
  <path d="M90 45c-12 22-27 36-27 55 0 16 12 29 27 29s27-13 27-29c0-19-15-33-27-55Z" fill="#ff6767" opacity=".82"/>
  <path d="M91 76c-5 11-12 17-12 27 0 7 5 13 12 13s12-6 12-13c0-10-7-16-12-27Z" fill="#ff9b9b" opacity=".68"/>
</svg>
